<svg width="1200" height="630" xmlns="http://www.w3.org/2000/svg">
  <defs>
    <linearGradient id="bg2" x1="0%" y1="0%" x2="100%" y2="100%">
      <stop offset="0%" style="stop-color:#0d0d0d"/>
      <stop offset="100%" style="stop-color:#141414"/>
    </linearGradient>
    <radialGradient id="glow2" cx="30%" cy="60%">
      <stop offset="0%" style="stop-color:#F17F0D;stop-opacity:0.2"/>
      <stop offset="100%" style="stop-color:#F17F0D;stop-opacity:0"/>
    </radialGradient>
  </defs>
  <rect width="1200" height="630" fill="url(#bg2)"/>
  <ellipse cx="360" cy="380" rx="250" ry="180" fill="url(#glow2)"/>
  <!-- Gap bars -->
  <rect x="300" y="180" width="200" height="24" rx="4" fill="#1e1e1e"/>
  <rect x="300" y="180" width="160" height="24" rx="4" fill="#F17F0D" opacity="0.8"/>
  <rect x="300" y="220" width="200" height="24" rx="4" fill="#1e1e1e"/>
  <rect x="300" y="220" width="120" height="24" rx="4" fill="#F17F0D" opacity="0.6"/>
  <rect x="300" y="260" width="200" height="24" rx="4" fill="#1e1e1e"/>
  <rect x="300" y="260" width="180" height="24" rx="4" fill="#F17F0D" opacity="0.9"/>
  <rect x="300" y="300" width="200" height="24" rx="4" fill="#1e1e1e"/>
  <rect x="300" y="300" width="80" height="24" rx="4" fill="#dd3333" opacity="0.7"/>
  <!-- Labels -->
  <text x="520" y="198" fill="#9ca3af" font-size="13" font-family="sans-serif">Requirements Coverage 80%</text>
  <text x="520" y="238" fill="#9ca3af" font-size="13" font-family="sans-serif">Test Coverage 60%</text>
  <text x="520" y="278" fill="#9ca3af" font-size="13" font-family="sans-serif">Code Alignment 90%</text>
  <text x="520" y="318" fill="#9ca3af" font-size="13" font-family="sans-serif">Missing Impl. 40%</text>
  <!-- Shield icon -->
  <path d="M800,200 L840,220 L840,270 C840,310 800,340 800,340 C800,340 760,310 760,270 L760,220 Z" fill="none" stroke="#F17F0D" stroke-width="2.5"/>
  <text x="800" y="282" text-anchor="middle" fill="#F17F0D" font-size="30" font-family="sans-serif">!</text>
  <!-- Title -->
  <text x="600" y="440" text-anchor="middle" fill="#ffffff" font-size="32" font-weight="bold" font-family="sans-serif">Continuous Gap Analysis</text>
  <text x="600" y="478" text-anchor="middle" fill="#9ca3af" font-size="16" font-family="sans-serif">Catch Issues Before They Ship</text>
</svg>